<?xml version="1.0" encoding="utf-8"?>
<!-- Generator: Adobe Illustrator 20.1.0, SVG Export Plug-In . SVG Version: 6.00 Build 0)  -->
<svg version="1.1" id="Слой_1" xmlns="http://www.w3.org/2000/svg" xmlns:xlink="http://www.w3.org/1999/xlink" x="0px" y="0px"
	 viewBox="0 0 79.2 79.2" style="enable-background:new 0 0 79.2 79.2;" xml:space="preserve">
<style type="text/css">
	.st0{fill:#FFFFFF;}
</style>
<g id="XMLID_1_">
	<g>
		<path class="st0" d="M66.1,75.1l-3-3.6c-6.6,4.9-14.7,7.7-23.5,7.7C17.8,79.2,0,61.4,0,39.6S17.8,0,39.6,0s39.6,17.8,39.6,39.6
			c0,5.7-1.2,11.1-3.3,16l-13.1-6.5c1.2-2.9,1.9-6.1,1.9-9.5c0-13.8-11.2-25-25-25s-25,11.2-25,25s11.2,25,25,25
			c5.1,0,10-1.6,14-4.3h0.2l18.2,1.9l7.1,7.4l-9.6,9.6L66.1,75.1z"/>
	</g>
</g>
</svg>
