<?xml version="1.0" encoding="utf-8"?>
<!-- Generator: Adobe Illustrator 20.1.0, SVG Export Plug-In . SVG Version: 6.00 Build 0)  -->
<svg version="1.1" id="Слой_1" xmlns="http://www.w3.org/2000/svg" xmlns:xlink="http://www.w3.org/1999/xlink" x="0px" y="0px"
	 viewBox="0 0 25 25" style="enable-background:new 0 0 25 25;" xml:space="preserve">
<style type="text/css">
	.st0{fill:#FFFFFF;stroke:#262626;stroke-linecap:round;stroke-miterlimit:10;}
	.st1{fill:#252525;}
	.st2{fill:none;stroke:#BB133E;stroke-width:2.5;stroke-linecap:round;}
	.st3{fill:#002664;stroke:#002664;stroke-width:2.5;stroke-linecap:round;}
	.st4{fill:#FFFFFF;stroke:#FFFFFF;stroke-width:0.25;stroke-linecap:round;}
	.st5{fill:none;stroke:#252525;stroke-width:6;stroke-linecap:round;stroke-linejoin:round;}
	.st6{fill:none;stroke:#FFFFFF;stroke-linecap:round;stroke-miterlimit:10;}
</style>
<g id="XMLID_1_">
	<circle class="st0" cx="12.5" cy="12.5" r="10"/>
	<path class="st1" d="M0,25V0h25v25H0z M2.5,12.5c0,5.5,4.5,10,10,10s10-4.5,10-10s-4.5-10-10-10S2.5,7,2.5,12.5z"/>
</g>
<line class="st2" x1="2.5" y1="20.9" x2="22.5" y2="20.9"/>
<line class="st2" x1="2.5" y1="16.5" x2="22.5" y2="16.5"/>
<line class="st2" x1="2.5" y1="11.5" x2="22.5" y2="11.5"/>
<line class="st2" x1="2.5" y1="6.5" x2="22.5" y2="6.5"/>
<line class="st2" x1="2.5" y1="2.5" x2="22.5" y2="2.5"/>
<rect x="3.9" y="3.9" class="st3" width="7.6" height="7.6"/>
<ellipse class="st4" cx="9.4" cy="3.6" rx="0.3" ry="0.2"/>
<ellipse class="st4" cx="3.4" cy="9.6" rx="0.3" ry="0.2"/>
<ellipse class="st4" cx="3.4" cy="11.6" rx="0.3" ry="0.2"/>
<circle class="st5" cx="12.5" cy="12.5" r="12.5"/>
<ellipse class="st4" cx="11.4" cy="11.6" rx="0.3" ry="0.2"/>
<ellipse class="st4" cx="9.4" cy="11.6" rx="0.3" ry="0.2"/>
<ellipse class="st4" cx="7.4" cy="11.6" rx="0.3" ry="0.2"/>
<ellipse class="st4" cx="5.4" cy="11.6" rx="0.3" ry="0.2"/>
<ellipse class="st4" cx="11.4" cy="9.6" rx="0.3" ry="0.2"/>
<ellipse class="st4" cx="9.4" cy="9.6" rx="0.3" ry="0.2"/>
<ellipse class="st4" cx="7.4" cy="9.6" rx="0.3" ry="0.2"/>
<ellipse class="st4" cx="5.4" cy="9.6" rx="0.3" ry="0.2"/>
<ellipse class="st4" cx="7.4" cy="7.6" rx="0.3" ry="0.2"/>
<ellipse class="st4" cx="9.4" cy="7.6" rx="0.3" ry="0.2"/>
<ellipse class="st4" cx="11.4" cy="7.6" rx="0.3" ry="0.2"/>
<ellipse class="st4" cx="5.4" cy="7.6" rx="0.3" ry="0.2"/>
<ellipse class="st4" cx="7.4" cy="5.6" rx="0.3" ry="0.2"/>
<ellipse class="st4" cx="9.4" cy="5.6" rx="0.3" ry="0.2"/>
<ellipse class="st4" cx="11.4" cy="5.6" rx="0.3" ry="0.2"/>
<ellipse class="st4" cx="11.4" cy="3.6" rx="0.3" ry="0.2"/>
<circle class="st6" cx="12.5" cy="12.5" r="10"/>
</svg>
